<?xml version="1.0" encoding="utf-8"?>
<!-- Generator: Adobe Illustrator 22.1.0, SVG Export Plug-In . SVG Version: 6.00 Build 0)  -->
<svg version="1.1" id="Слой_1" xmlns="http://www.w3.org/2000/svg" xmlns:xlink="http://www.w3.org/1999/xlink" x="0px" y="0px"
	 viewBox="0 0 99 100" style="enable-background:new 0 0 99 100;" xml:space="preserve">
<style type="text/css">
	.st0{fill:#FFFFFF;}
</style>
<path class="st0" d="M57.8,1.1c-0.9-0.1-1.7,0.4-1.8,1.3c-0.1,0.9,0.4,1.7,1.3,1.8c22.4,3.8,38.6,23,38.6,45.7
	c0,25.6-20.8,46.3-46.3,46.3c-25.6,0-46.3-20.8-46.3-46.3c0-25,19.9-45.5,44.8-46.3v8.7c-20,0.8-36.1,17.4-36.1,37.6
	c0,20.8,16.9,37.6,37.6,37.6c0.9,0,1.6-0.7,1.6-1.6l0-10.5c10.2-0.6,19.2-7.3,22.6-17.1c0.3-0.8-0.1-1.7-1-2c-0.8-0.3-1.7,0.1-2,1
	c-3.2,9-11.7,15-21.2,15C37.1,72.4,27,62.3,27,49.9s10.1-22.5,22.5-22.5c11.9,0,21.6,9.3,22.5,20.9h-9c-0.8-6.7-6.5-12-13.5-12
	c-7.5,0-13.6,6.1-13.6,13.6c0,7.5,6.1,13.6,13.6,13.6c6.9,0,12.7-5.2,13.5-12h10.6c0.9,0,1.6-0.7,1.6-1.6
	c0-14.1-11.5-25.7-25.7-25.7S23.8,35.8,23.8,49.9c0,13.6,10.7,24.8,24.1,25.6l0,8.8C29.6,83.6,15,68.4,15,49.9
	c0-19,15.5-34.5,34.5-34.5c19,0,34.5,15.5,34.5,34.5c0,16.2-11,30.1-26.8,33.6c-0.8,0.2-1.4,1-1.2,1.9c0.2,0.8,1,1.4,1.9,1.2
	c17.2-3.9,29.3-19,29.3-36.7c0-20.2-16-36.8-36.1-37.6V2c0-0.9-0.7-1.6-1.6-1.6C22.2,0.4,0,22.6,0,49.9s22.2,49.5,49.5,49.5
	C76.8,99.4,99,77.2,99,49.9C99,25.7,81.7,5.1,57.8,1.1z M49.5,60.3c-5.7,0-10.4-4.7-10.4-10.4c0-5.7,4.7-10.4,10.4-10.4
	s10.4,4.7,10.4,10.4C59.9,55.7,55.2,60.3,49.5,60.3z"/>
</svg>
